<svg viewBox="0 0 500 500" xmlns="http://www.w3.org/2000/svg"><path d="m422.41 330.16 13.35-.28 6.58-.11h6.55l-.45.44-.05-11.21.5.5-13.24-.06c-4.42 0-8.83-.11-13.24-.17l.27-.27c0 1.83-.09 3.67-.13 5.54zm0 0-.15-5.54c0-1.86-.11-3.75-.13-5.65v-.27h.28c4.41-.05 8.82-.16 13.24-.17l13.24-.06h.5v.5l-.06 11.19v.45h-.44c-2.23 0-4.47 0-6.7-.06l-6.66-.11z" fill="#ebebeb"/><path d="m437.18 344.27 13.35-.28 6.58-.11c2.19-.05 4.37 0 6.55-.05l-.45.44v-11.19l.5.5-13.24-.06c-4.41 0-8.83-.12-13.24-.17l.27-.27c0 1.83-.08 3.67-.13 5.54zm0 0-.14-5.54c-.05-1.86-.12-3.75-.13-5.65v-.27h.28c4.41-.05 8.83-.16 13.24-.17l13.24-.06h.5v.5l-.06 11.19v.45h-.44c-2.23 0-4.47 0-6.7-.06l-6.66-.11z" fill="#ebebeb"/><path d="m226.2 90 13.36-.28 6.58-.11h6.54l-.44.44-.05-11.19.49.5-13.24-.06c-4.41 0-8.82-.11-13.24-.17l.28-.27c0 1.83-.09 3.67-.13 5.54zm0 0-.14-5.53c0-1.87-.11-3.76-.13-5.66v-.27h.27c4.42 0 8.83-.16 13.24-.17l13.24-.06h.51v.5l-.06 11.19v.45h-.45c-2.23 0-4.46 0-6.69-.06l-6.66-.11z" fill="#ebebeb"/><path d="m241 104.13 13.35-.28 6.58-.11h6.55l-.45.44-.03-11.24.5.5-13.24-.06c-4.42 0-8.83-.11-13.24-.17l.27-.27c0 1.83-.09 3.67-.13 5.54zm0 0-.15-5.54c0-1.86-.11-3.75-.13-5.65v-.27h.28c4.41 0 8.82-.16 13.24-.17l13.24-.06h.5v.5l-.06 11.19v.45h-.44c-2.24 0-4.47 0-6.7-.06l-6.66-.11z" fill="#ebebeb"/><path d="m255.69 90 13.31-.26 6.58-.11h6.55l-.45.44-.05-11.19.5.5-13.24-.06c-4.41 0-8.83-.11-13.24-.17l.27-.27c0 1.83-.08 3.67-.13 5.54zm0 0-.14-5.53c-.05-1.87-.12-3.76-.13-5.66v-.27h.28c4.41 0 8.83-.16 13.24-.17l13.24-.06h.5v.5l-.06 11.19v.45h-.44c-2.23 0-4.47 0-6.69-.06l-6.67-.11z" fill="#ebebeb"/><path d="m36.34 344.27 13.36-.27 6.58-.11c2.18-.05 4.36 0 6.54-.05l-.44.44-.06-11.19.5.5-13.24-.06c-4.41 0-8.83-.12-13.24-.17l.27-.27c0 1.83-.08 3.67-.13 5.54zm0 0-.14-5.54c-.05-1.86-.11-3.75-.13-5.65v-.27h.27c4.41-.05 8.83-.16 13.24-.17l13.24-.06h.5v.5 11.19.45h-.45c-2.23 0-4.47 0-6.69-.06l-6.66-.11z" fill="#ebebeb"/><path d="m346.32 184 13.36-.28 6.58-.11c2.19 0 4.36 0 6.55-.06l-.45.45-.05-11.19.5.5-13.24-.06c-4.42 0-8.83-.12-13.25-.17l.28-.27c0 1.83-.09 3.67-.13 5.54zm0 0-.14-5.54c0-1.86-.11-3.75-.13-5.65v-.27h.27c4.42-.05 8.83-.16 13.25-.17l13.24-.06h.5v.5l-.06 11.19v.45h-.44c-2.24 0-4.47 0-6.7-.06l-6.66-.11z" fill="#ebebeb"/><path d="m51.11 60.59 13.36-.28 6.58-.11c2.19-.05 4.36 0 6.54-.05l-.44.44-.06-11.19.5.5-13.24-.06c-4.41 0-8.82-.11-13.24-.17l.28-.27c0 1.83-.09 3.68-.14 5.54zm0 0-.11-5.53c0-1.87-.11-3.76-.13-5.66v-.27h.27c4.42-.05 8.83-.16 13.24-.16l13.24-.07h.51v.5 11.19.41h-.45c-2.23 0-4.47 0-6.69-.06l-6.66-.11z" fill="#ebebeb"/><path d="m36.34 74.7 13.36-.28 6.58-.11h6.54l-.44.44-.06-11.19.5.5-13.24-.06c-4.41 0-8.83-.11-13.24-.17l.27-.27c0 1.83-.08 3.67-.13 5.54zm0 0-.14-5.53c-.05-1.87-.11-3.76-.13-5.66v-.27h.27c4.41-.05 8.83-.16 13.24-.16l13.24-.08h.5v.5 11.19.45h-.45c-2.23 0-4.47 0-6.69-.06l-6.71-.08z" fill="#ebebeb"/><path d="m432.41 60.59 13.35-.28 6.58-.11c2.19-.05 4.37 0 6.55-.05l-.45.44-.05-11.19.5.5-13.24-.06c-4.42 0-8.83-.11-13.24-.17l.27-.27c0 1.83-.09 3.68-.13 5.54zm0 0-.15-5.53c0-1.87-.11-3.76-.13-5.66v-.27h.28c4.41-.05 8.82-.16 13.24-.16l13.24-.07h.5v.5l-.06 11.19v.41h-.44c-2.23 0-4.47 0-6.7-.06l-6.66-.11z" fill="#ebebeb"/><path d="m427.03 0h1v91.16h-1z" fill="#c7c7c7"/><path d="m395.88 121.68 2.54 5.59h58.23l2.54-5.59-24.79-17.16h-13.73z" fill="#ebebeb"/><path d="m418.94 87.99 1.73 16.53h13.73l1.72-16.53z" fill="#dbdbdb"/><path d="m395.88 121.68 2.55 5.6h58.22l2.54-5.6z" fill="#dbdbdb"/><path d="m359.06 0h1v73.1h-1z" fill="#c7c7c7"/><path d="m327.91 103.62 2.54 5.6h58.23l2.54-5.6-24.79-17.16h-13.73z" fill="#ebebeb"/><path d="m350.98 69.93 1.72 16.53h13.73l1.72-16.53z" fill="#dbdbdb"/><path d="m327.91 103.62 2.55 5.6h58.22l2.54-5.6z" fill="#dbdbdb"/><path d="m81.45 259.24h114.78v190.15h-114.78z" fill="#ebebeb" transform="matrix(-1 0 0 -1 277.67 708.64)"/><path d="m76.34 253.83h125v5.42h-125z" fill="#dbdbdb" transform="matrix(-1 0 0 -1 277.67 513.07)"/><path d="m39.95 253.83h36.38v5.42h-36.38z" fill="#ebebeb" transform="matrix(-1 0 0 -1 116.29 513.07)"/><path d="m45.71 259.24h35.73v190.15h-35.73z" fill="#dbdbdb" transform="matrix(-1 0 0 -1 127.16 708.64)"/><path d="m184.86 379.55h-92.05v-46.76h92.05zm-91.8-.25h91.55v-46.3h-91.55z" fill="#c7c7c7"/><path d="m129.62 346.45h25.42v9.26h-25.42z" fill="#c7c7c7" transform="matrix(-1 0 0 -1 284.66 702.16)"/><path d="m150.4 355.14h-25.67v-8.14h25.67zm-25.4-.25h25.17v-7.62h-25.17z" fill="#c7c7c7"/><path d="m184.86 438.31h-92.05v-46.76h92.05zm-91.8-.25h91.55v-46.26h-91.55z" fill="#c7c7c7"/><path d="m129.62 405.21h25.42v9.26h-25.42z" fill="#c7c7c7" transform="matrix(-1 0 0 -1 284.66 819.68)"/><path d="m150.4 413.9h-25.67v-8.12h25.67zm-25.4-.25h25.17v-7.65h-25.17z" fill="#c7c7c7"/><path d="m184.86 320.79h-92.05v-46.79h92.05zm-91.8-.25h91.55v-46.26h-91.55z" fill="#c7c7c7"/><path d="m129.62 287.69h25.42v9.26h-25.42z" fill="#c7c7c7" transform="matrix(-1 0 0 -1 284.66 584.64)"/><path d="m150.4 296.38h-25.67v-8.11h25.67zm-25.4-.25h25.17v-7.61h-25.17z" fill="#c7c7c7"/><path d="m187.54 216.78h-137.54v-170.22h137.54zm-133.47-4.08h129.39v-162.06h-129.39z" fill="#ebebeb"/><path d="m116.73 51.71h4.08v163.04h-4.08z" fill="#ebebeb"/><path d="m46.29 54.81h144.96v5.68h-144.96z" fill="#ebebeb"/><path d="m46.29 61.2h144.96v5.68h-144.96z" fill="#ebebeb"/><path d="m46.29 67.6h144.96v5.68h-144.96z" fill="#ebebeb"/><path d="m46.29 73.99h144.96v5.68h-144.96z" fill="#ebebeb"/><path d="m46.29 80.39h144.96v5.68h-144.96z" fill="#ebebeb"/><path d="m46.29 86.78h144.96v5.68h-144.96z" fill="#ebebeb"/><path d="m46.29 93.17h144.96v5.68h-144.96z" fill="#ebebeb"/><path d="m46.29 99.57h144.96v5.68h-144.96z" fill="#ebebeb"/><path d="m46.29 105.96h144.96v5.68h-144.96z" fill="#ebebeb"/><path d="m178.1 53.66h1.02v88.73h-1.02z" fill="#263238"/><path d="m180.42 147.14h-3.62l.91-5.2h1.81z" fill="#263238"/><path d="m181.78 53.66h1.02v116.63h-1.02z" fill="#263238"/><path d="m184.1 174.11h-3.62l.9-5.2h1.81z" fill="#263238"/><path d="m39.95 45.76h157.62v11.89h-157.62z" fill="#dbdbdb"/><path d="m35.47 449.39 53.63-.24 53.63-.09 107.27-.16 107.27.16 53.63.09 53.63.24-53.63.25-53.63.09-107.27.16-107.27-.16-53.63-.09z" fill="#263238"/><path d="m300.05 189.5h113.35v259.9h-113.35z" fill="#455a64"/><path d="m295.08 184.23h123.28v5.27h-123.28z" fill="#37474f"/><path d="m418.37 184.23h46.17v5.27h-46.17z" fill="#455a64"/><path d="m413.4 189.5h45.53v259.9h-45.53z" fill="#37474f"/><path d="m402.48 365.6h-91.48v-45.73h91.51zm-91-.5h90.52v-44.73h-90.53z" fill="#263238"/><path d="m340.1 333.29h26.45v9h-26.45z" fill="#263238"/><path d="m371.43 341.87h-26.95v-8.15h26.95zm-26.45-.5h25.95v-7.15h-25.93z" fill="#263238"/><path d="m402.48 422.74h-91.48v-45.74h91.51zm-91-.5h90.52v-44.73h-90.53z" fill="#263238"/><path d="m340.1 390.43h26.45v9h-26.45z" fill="#263238"/><path d="m371.43 399h-26.95v-8.14h26.95zm-26.43-.5h25.95v-7.14h-25.95z" fill="#263238"/><path d="m402.48 251.32h-91.48v-45.72h91.51zm-91-.5h90.52v-44.72h-90.53z" fill="#263238"/><path d="m340.1 219.01h26.45v9h-26.45z" fill="#263238"/><path d="m371.43 227.59h-26.95v-8.15h26.95zm-26.45-.5h25.95v-7.15h-25.93z" fill="#263238"/><path d="m350.64 267.64h12.34v5.2h-12.34z" fill="#fff"/><path d="m350.64 268.79h12.34v.5h-12.34z" fill="#0eba24"/><path d="m350.64 271.18h12.34v.5h-12.34z" fill="#0eba24"/><path d="m322.01 262.9h80.22v45.23h-80.22z" fill="#263238"/><path d="m322.05 249.03h70.14v50.84h-70.14z" fill="#0eba24"/><path d="m346.83 243.76h-24.78v5.27h26.21z" fill="#0eba24"/><g opacity=".3"><path d="m322.05 249.03h70.14v50.84h-70.14z"/><path d="m346.83 243.76h-24.78v5.27h26.21z"/></g><path d="m324.48 245.82h20.27v3.06h-20.27z" fill="#fff"/><path d="m392.19 299.87h-70.14l-.51-47.69h70.14z" fill="#0eba24"/><path d="m346.27 247.35h-24.78l.05 4.83h26.21z" fill="#0eba24"/><g opacity=".1"><path d="m392.19 299.87h-70.14l-.51-47.69h70.14z"/><path d="m346.27 247.35h-24.78l.05 4.83h26.21z"/></g><path d="m318.54 245.44h70.14v50.84h-70.14z" fill="#0eba24"/><path d="m343.32 240.18h-24.78v5.26h26.2z" fill="#0eba24"/><g opacity=".3"><path d="m318.54 245.44h70.14v50.84h-70.14z"/><path d="m343.32 240.18h-24.78v5.26h26.2z"/></g><path d="m320.97 242.23h20.27v3.06h-20.27z" fill="#fff"/><path d="m388.68 296.28h-70.14l-.51-47.69h70.14z" fill="#0eba24"/><path d="m342.76 243.77h-24.78l.05 4.82h26.21z" fill="#0eba24"/><g opacity=".1"><path d="m388.68 296.28h-70.14l-.51-47.69h70.14z"/><path d="m342.76 243.77h-24.78l.05 4.82h26.21z"/></g><path d="m286.25 227.25h70.14v50.84h-70.14z" fill="#0eba24"/><path d="m311.03 221.99h-24.78v5.26h26.2z" fill="#0eba24"/><g opacity=".2"><path d="m286.25 227.25h70.14v50.84h-70.14z"/><path d="m311.03 221.99h-24.78v5.26h26.2z"/></g><path d="m288.69 223.58h20.27v3.06h-20.27z" fill="#fff"/><path d="m292.12 205.93h50.82v65.24h-50.82z" fill="#fff" transform="matrix(.16160382 -.98685572 .98685572 .16160382 30.79 513.35)"/><path d="m295.9 255.13 3.16-19.6 3.25-19.59-3.16 19.6z" fill="#c7c7c7"/><path d="m297.49 255.39 3.16-19.6 3.26-19.58-3.16 19.6z" fill="#c7c7c7"/><path d="m299.09 255.65 3.16-19.6 3.26-19.58-3.16 19.6z" fill="#c7c7c7"/><path d="m300.69 255.91 3.16-19.6 3.26-19.58-3.16 19.6z" fill="#c7c7c7"/><path d="m302.29 256.18 3.16-19.61 3.26-19.58-3.16 19.6z" fill="#c7c7c7"/><path d="m303.88 256.44 3.17-19.6 3.25-19.59-3.16 19.6z" fill="#c7c7c7"/><path d="m305.48 256.7 3.16-19.6 3.26-19.59-3.16 19.61z" fill="#c7c7c7"/><path d="m307.08 256.96 3.16-19.6 3.26-19.58-3.16 19.6z" fill="#c7c7c7"/><path d="m308.68 257.22 3.16-19.6 3.26-19.58-3.16 19.6z" fill="#c7c7c7"/><path d="m310.28 257.48 3.16-19.6 3.25-19.58-3.15 19.6z" fill="#c7c7c7"/><path d="m311.87 257.75 3.16-19.6 3.26-19.59-3.16 19.6z" fill="#c7c7c7"/><path d="m313.47 258.01 3.16-19.6 3.26-19.59-3.16 19.6z" fill="#c7c7c7"/><path d="m315.07 258.27 3.16-19.6 3.26-19.58-3.16 19.6z" fill="#c7c7c7"/><path d="m316.67 258.53 3.16-19.6 3.26-19.58-3.16 19.6z" fill="#c7c7c7"/><path d="m318.27 258.79 3.16-19.6 3.25-19.58-3.16 19.6z" fill="#c7c7c7"/><path d="m316.19 249.52h3.01v6.8h-3.01z" fill="#0eba24" transform="matrix(.16160382 -.98685572 .98685572 .16160382 16.74 525.55)"/><path d="m315.31 241.9h3.01v10.42h-3.01z" fill="#0eba24" transform="matrix(.16160382 -.98685572 .98685572 .16160382 21.74 519.82)"/><path d="m314.21 234.04h3.01v14.48h-3.01z" fill="#0eba24" transform="matrix(.16160382 -.98685572 .98685572 .16160382 26.58 513.84)"/><path d="m314.25 227.51h3.01v16.22h-3.01z" fill="#0eba24" transform="matrix(.16160382 -.98685572 .98685572 .16160382 32.19 509.14)"/><path d="m313.62 220.19h3.01v19.33h-3.01z" fill="#0eba24" transform="matrix(.16160382 -.98685572 .98685572 .16160382 37.35 503.68)"/><path d="m313.01 212.9h3.01v22.39h-3.01z" fill="#0eba24" transform="matrix(.16160382 -.98685572 .98685572 .16160382 42.52 498.24)"/><path d="m295 253.88 6.35 1 6.35 1q6.35 1 12.68 2l-.21.15 1.55-9.53 1.58-9.52 1.63-9.52 1.67-9.52-1.46 9.55-1.5 9.54-1.53 9.54-1.57 9.52v.19h-.19c-4.22-.7-8.45-1.4-12.67-2.13l-6.41-1.15z" fill="#c7c7c7"/><path d="m321.02 253.57h3.01v.27h-3.01z" fill="#c7c7c7" transform="matrix(.16 -.99 .99 .16 20.02 530.98)"/><path d="m321.92 248.06h3.01v.27h-3.01z" fill="#c7c7c7" transform="matrix(.16160382 -.98685572 .98685572 .16160382 26.21 527.25)"/><path d="m322.82 242.55h3.01v.27h-3.01z" fill="#c7c7c7" transform="matrix(.16 -.99 .99 .16 32.41 523.52)"/><path d="m323.73 237.04h3.01v.27h-3.01z" fill="#c7c7c7" transform="matrix(.16160382 -.98685572 .98685572 .16160382 38.61 519.79)"/><path d="m324.63 231.52h3.01v.27h-3.01z" fill="#c7c7c7" transform="matrix(.16160382 -.98685572 .98685572 .16160382 44.81 516.06)"/><path d="m325.53 226.01h3.01v.27h-3.01z" fill="#c7c7c7" transform="matrix(.16160382 -.98685572 .98685572 .16160382 51 512.33)"/><path d="m315 253.66a36.12 36.12 0 0 0 .38-4.39 43.26 43.26 0 0 0 -.07-4.41 37.12 37.12 0 0 0 -1.53-8.63 29.7 29.7 0 0 0 -3.69-7.93l-.3-.46-.32-.45-.66-.88c-.47-.56-.91-1.15-1.43-1.67a30.47 30.47 0 0 0 -3.2-3 26.3 26.3 0 0 1 8.4 10.16 28.1 28.1 0 0 1 1.6 4.14 35.6 35.6 0 0 1 1.46 8.75 36.14 36.14 0 0 1 -.64 8.77z" fill="#263238"/><path d="m306.38 221.31.04.43-2.11.18.33 2.09-.43.06-.4-2.54z" fill="#263238"/><path d="m313.43 240.44h41.4v1.68h-41.4z" fill="#dbdbdb" transform="matrix(-.16160382 .98685572 -.98685572 -.16160382 626.25 -49.46)"/><path d="m325.19 250.05h23.31v1.68h-23.31z" fill="#dbdbdb" transform="matrix(-.16160382 .98685572 -.98685572 -.16160382 638.88 -40.97)"/><path d="m281.63 233.75h23.31v1.68h-23.31z" fill="#dbdbdb" transform="matrix(-.16160382 .98685572 -.98685572 -.16160382 572.19 -16.93)"/><path d="m356.2 278.09h-70.13l-5.41-46.62h70.13z" fill="#0eba24"/><path d="m304.88 226.64h-24.78l.56 4.83h26.2z" fill="#0eba24"/><path d="m277.15 246.89h70.14v50.84h-70.14z" fill="#0eba24"/><path d="m301.93 241.62h-24.79v5.27h26.21z" fill="#0eba24"/><g fill="#fff" opacity=".2"><path d="m277.15 246.89h70.14v50.84h-70.14z"/><path d="m301.93 241.62h-24.79v5.27h26.21z"/></g><path d="m279.58 243.68h20.27v3.06h-20.27z" fill="#fff"/><path d="m347.28 297.73h-70.14l-.5-47.69h70.13z" fill="#0eba24"/><path d="m301.36 245.21h-24.78l.06 4.83h26.2z" fill="#0eba24"/><g fill="#fff" opacity=".4"><path d="m347.28 297.73h-70.14l-.5-47.69h70.13z"/><path d="m301.36 245.21h-24.78l.06 4.83h26.2z"/></g><path d="m272.58 262.9h91.01v45.23h-91.01z" fill="#455a64"/><path d="m363.83 308.38h-91.5v-45.73h91.5zm-91-.5h90.5v-44.73h-90.5z" fill="#263238"/><path d="m301.45 276.06h26.45v9h-26.45z" fill="#263238"/><path d="m332.79 284.64h-27v-8.15h27zm-26.46-.5h26v-7.14h-26z" fill="#263238"/><path d="m363.78 269.68h38.45v38.45h-38.45z" fill="#37474f"/><path d="m397.71 130.71c-3.13 0-9.46-2.46-8.39-4.52s4.32.58 4.46.66c-.1-.15-2.21-4.28-.33-5s3.79 1.27 4.26 3.56c.47-2.29 2.33-4.3 4.26-3.56s-.23 4.84-.33 5c.14-.08 3.42-2.69 4.46-.66s-5.26 4.52-8.39 4.52z" fill="#455a64"/><path d="m413.51 147.59a37 37 0 0 1 -.8 5.13 22.19 22.19 0 0 1 -3.71 8.81 31.17 31.17 0 0 1 -22.65 0c-3.73-4.67-5.06-14.26-4.53-19.19 1-8.91 6.28-12.32 10.9-13.54a19.94 19.94 0 0 1 4.95-.63c4.53 0 14.5 1.63 15.85 14.17a27.08 27.08 0 0 1 -.01 5.25z" fill="#0eba24"/><g fill="#fff"><path d="m398 128.17c.13 3 .2 5.92.26 8.87s.07 5.92.08 8.88 0 5.92-.11 8.88a74.93 74.93 0 0 1 -.62 8.86l.11-1.1.06-1.11c.05-.74.05-1.48.07-2.22 0-1.47.06-2.95.07-4.43 0-3 0-5.92 0-8.88v-8.87c.08-2.96.08-5.92.08-8.88z"/><path d="m396.08 128.23a37.47 37.47 0 0 0 -1.06 4.3c-.29 1.44-.51 2.9-.69 4.36a84.12 84.12 0 0 0 -.61 8.82v2.21 2.22c0 1.47.14 2.94.2 4.42 0 .73.11 1.47.17 2.2l.2 2.21.5 4.4c-.24-1.46-.48-2.92-.7-4.38l-.25-2.2c-.08-.74-.18-1.47-.22-2.21-.12-1.48-.23-3-.26-4.43 0-.74-.06-1.48-.06-2.22v-2.22a77.21 77.21 0 0 1 .7-8.86 43.82 43.82 0 0 1 2.08-8.62z"/><path d="m393.52 128.6a17.89 17.89 0 0 0 -2.25 3.91c-.14.34-.31.68-.44 1l-.38 1.06-.19.53-.15.55-.3 1.08a34.94 34.94 0 0 0 -1 8.93l.05 2.25.22 2.25.11 1.12c0 .37.13.74.19 1.11l.38 2.23a10.26 10.26 0 0 0 .24 1.1l.27 1.1.53 2.2 1.34 4.32c-.52-1.42-1-2.84-1.53-4.27l-.59-2.19-.29-1.1a10.38 10.38 0 0 1 -.27-1.1l-.42-2.23c-.07-.38-.14-.75-.2-1.12l-.12-1.13-.24-2.26-.07-2.28a33.83 33.83 0 0 1 1.13-9l.33-1.09c.06-.18.11-.36.17-.54l.2-.53.41-1.06c.15-.35.32-.69.47-1a17.31 17.31 0 0 1 2.4-3.84z"/><path d="m391.63 129.11a16.51 16.51 0 0 0 -3.06 3.4 19.71 19.71 0 0 0 -2.18 4 23.19 23.19 0 0 0 -1.72 8.9c0 .77 0 1.53.06 2.29s.12 1.52.25 2.27l.17 1.13.24 1.12c.07.38.15.75.25 1.12l.28 1.11c.19.74.43 1.46.65 2.2l.77 2.16.85 2.13.93 2.11a45.84 45.84 0 0 1 -3.5-8.52c-.19-.74-.43-1.48-.57-2.23l-.24-1.13-.19-1.15c-.14-.76-.18-1.53-.27-2.29s-.1-1.55-.08-2.32a23.09 23.09 0 0 1 1.84-9 19.94 19.94 0 0 1 2.3-4 19.35 19.35 0 0 1 1.5-1.76 13.08 13.08 0 0 1 1.72-1.54z"/><path d="m399.81 128.25a43.82 43.82 0 0 1 2.06 8.62 75.19 75.19 0 0 1 .7 8.86v2.27c0 .74 0 1.48-.06 2.22 0 1.48-.14 3-.26 4.43 0 .74-.14 1.47-.22 2.21l-.25 2.2c-.22 1.47-.45 2.93-.7 4.38l.5-4.4.2-2.21c.07-.73.14-1.47.17-2.2.07-1.48.19-3 .2-4.42 0-.74 0-1.48 0-2.21v-2.22a81.5 81.5 0 0 0 -.61-8.82c-.18-1.46-.4-2.92-.69-4.36a37.47 37.47 0 0 0 -1.04-4.35z"/><path d="m402.37 128.62a17.54 17.54 0 0 1 2.43 3.82c.15.35.32.69.47 1l.41 1.06.2.53c.06.18.11.36.17.55l.33 1.08a33.83 33.83 0 0 1 1.13 9l-.07 2.28-.24 2.26-.12 1.13c-.06.37-.13.74-.2 1.12l-.42 2.23a10.34 10.34 0 0 1 -.26 1.1l-.3 1.1-.59 2.19c-.51 1.43-1 2.86-1.53 4.27l1.34-4.32.53-2.2.27-1.1a10.26 10.26 0 0 0 .24-1.1l.38-2.23c.06-.37.14-.74.19-1.11l.11-1.12.22-2.25.05-2.25a34.94 34.94 0 0 0 -1-8.93l-.3-1.08c0-.18-.09-.37-.15-.54l-.19-.54-.38-1.06c-.13-.35-.3-.69-.44-1a17.89 17.89 0 0 0 -2.28-3.89z"/><path d="m404.26 129.13a13.84 13.84 0 0 1 1.73 1.52 20.69 20.69 0 0 1 1.49 1.76 20.47 20.47 0 0 1 2.31 4 23.09 23.09 0 0 1 1.83 9c0 .78 0 1.55-.07 2.32s-.14 1.54-.28 2.29l-.18 1.15-.25 1.13c-.14.75-.37 1.49-.57 2.23a45.84 45.84 0 0 1 -3.5 8.52l.93-2.1.85-2.14.77-2.16c.22-.73.46-1.46.65-2.2l.28-1.11c.1-.37.18-.74.26-1.12l.23-1.12.17-1.13c.13-.75.17-1.51.26-2.27s.08-1.52.05-2.28a23.06 23.06 0 0 0 -1.72-8.91 19.71 19.71 0 0 0 -2.18-4 16.51 16.51 0 0 0 -3.06-3.38z"/><path d="m397 138.75a21.72 21.72 0 0 1 1.31 2h-.31c.22-.4.46-.79.7-1.18l.37-.57c.14-.19.26-.38.41-.56l-.28.63-.3.61c-.21.41-.43.81-.66 1.21l-.12.2-.12-.2a20.88 20.88 0 0 1 -1-2.14z"/><path d="m398 137.72a8.49 8.49 0 0 1 .1 3.07 8.49 8.49 0 0 1 -.1-3.07z"/><path d="m407.2 128.26a20.82 20.82 0 0 1 0 2.37l-.2-.13 1.23-.61.63-.28.64-.25c-.19.14-.38.26-.57.38l-.59.35c-.4.23-.8.45-1.21.65l-.21.11v-.23a18.7 18.7 0 0 1 .28-2.36z"/><path d="m408.67 128a7.43 7.43 0 0 1 -.67 1.39 7.9 7.9 0 0 1 -.91 1.24 7.65 7.65 0 0 1 .67-1.38 7.82 7.82 0 0 1 .91-1.25z"/><path d="m404.75 135.34a21 21 0 0 1 1.07 2.12h-.24c.27-.37.55-.74.83-1.09.15-.18.29-.36.44-.53s.3-.35.47-.51c-.11.2-.24.4-.35.6s-.25.38-.38.57c-.25.38-.51.76-.79 1.12l-.14.19-.09-.22a18.37 18.37 0 0 1 -.82-2.25z"/><path d="m406 134.45a8.81 8.81 0 0 1 0 1.54 8 8 0 0 1 -.27 1.52 8.47 8.47 0 0 1 .26-3.06z"/><path d="m400.3 158.73a23.21 23.21 0 0 1 1.31 2h-.24c.22-.4.45-.79.7-1.18.12-.19.24-.38.37-.57s.26-.38.41-.56l-.28.63c-.1.21-.2.41-.31.62-.21.4-.42.8-.65 1.2l-.12.21-.12-.21a19.87 19.87 0 0 1 -1.07-2.14z"/><path d="m401.39 157.7a8.89 8.89 0 0 1 .19 1.53 8 8 0 0 1 -.09 1.54 8.49 8.49 0 0 1 -.1-3.07z"/><path d="m389.88 131.75a16.44 16.44 0 0 1 .68 2.27l-.22-.07c.33-.32.66-.62 1-.93l.52-.44.55-.42c-.14.18-.3.35-.45.53s-.31.33-.47.5c-.31.33-.64.65-1 1l-.18.16-.05-.23a20.3 20.3 0 0 1 -.38-2.37z"/><path d="m391.22 131.09a6.92 6.92 0 0 1 -.26 1.51 6.81 6.81 0 0 1 -.53 1.45 7.79 7.79 0 0 1 .26-1.52 7.55 7.55 0 0 1 .53-1.44z"/><path d="m414.21 140.28a20.58 20.58 0 0 1 -.25 2.35l-.19-.15c.43-.17.86-.32 1.29-.46l.66-.21.67-.17-.62.31-.63.28c-.42.18-.84.35-1.27.51l-.22.08v-.23a18.35 18.35 0 0 1 .56-2.31z"/><path d="m415.7 140.18a8.56 8.56 0 0 1 -1.88 2.43 8.56 8.56 0 0 1 1.88-2.43z"/><path d="m392.44 149a21.11 21.11 0 0 1 1.33 2h-.24c.22-.4.45-.8.69-1.19.12-.19.24-.39.37-.58s.25-.38.39-.56q-.12.31-.27.63c-.09.21-.19.42-.29.62-.21.41-.42.81-.65 1.21l-.12.21-.12-.21a21.93 21.93 0 0 1 -1.09-2.13z"/><path d="m393.52 148a7.12 7.12 0 0 1 .2 1.52 7.2 7.2 0 0 1 -.07 1.54 7.12 7.12 0 0 1 -.2-1.52 7.23 7.23 0 0 1 .07-1.54z"/><path d="m384.26 154.22a18.79 18.79 0 0 1 2 1.32l-.22.09c.05-.45.12-.91.19-1.36 0-.22.08-.45.13-.67s.09-.45.16-.67v.68s0 .46 0 .69c0 .46-.09.91-.15 1.36v.24l-.19-.14c-.74-.49-1.35-.99-1.92-1.54z"/><path d="m384.88 152.85a8.09 8.09 0 0 1 .76 1.34 7.43 7.43 0 0 1 .51 1.46 7.49 7.49 0 0 1 -.77-1.34 8.11 8.11 0 0 1 -.5-1.46z"/><path d="m382.24 133.44a20.93 20.93 0 0 1 2.18.92l-.2.14c0-.46-.06-.92-.07-1.37 0-.23 0-.46 0-.69s0-.46 0-.69c.05.23.08.45.12.68l.09.68c.05.46.09.91.11 1.37v.24l-.21-.11a20.81 20.81 0 0 1 -2.02-1.17z"/><path d="m382.58 132a8 8 0 0 1 1 1.18 7.31 7.31 0 0 1 .77 1.33 8.48 8.48 0 0 1 -1-1.17 7.07 7.07 0 0 1 -.77-1.34z"/><path d="m410.15 148.46a19.85 19.85 0 0 1 1.11 2.09h-.24c.26-.37.53-.74.81-1.1l.43-.54.45-.52c-.1.21-.22.4-.33.6l-.36.59c-.25.38-.51.76-.77 1.13l-.14.2-.1-.22a19.65 19.65 0 0 1 -.86-2.23z"/><path d="m411.33 147.54a8 8 0 0 1 0 1.54 7.87 7.87 0 0 1 -.23 1.52 8.16 8.16 0 0 1 .19-3.06z"/></g><path d="m384.37 161.75h26.89l-2.71 22.48h-21.47z" fill="#455a64"/><path d="m384.37 161.75.61 5.07 25.82-1.24.46-3.83z" fill="#263238"/><path d="m382.68 158.9h30.27v4.02h-30.27z" fill="#455a64"/><path d="m39.86 401.89h101.34v47.5h-101.34z" fill="#0eba24"/><path d="m39.86 401.89h101.34v47.5h-101.34z" fill="#020100" opacity=".1"/><path d="m107.65 401.89h33.55v47.5h-33.55z" fill="#020100" opacity=".1"/><path d="m141.2 401.89h-101.34v10.44l101.34-5.22z" fill="#020100" opacity=".1"/><path d="m35.47 392.88h110.13v11.91h-110.13z" fill="#0eba24"/><path d="m35.47 392.88h110.13v11.91h-110.13z" fill="#020100" opacity=".1"/><path d="m109.13 392.88h36.46v11.91h-36.46z" fill="#020100" opacity=".1"/><path d="m62.01 411.21h23.48v7.29h-23.48z" fill="#263238"/><path d="m54.13 338.63h65.17v47.24h-65.17z" fill="#0eba24"/><path d="m77.16 333.74h-23.03v4.89h24.35z" fill="#0eba24"/><g opacity=".3"><path d="m54.13 338.63h65.17v47.24h-65.17z"/><path d="m77.16 333.74h-23.03v4.89h24.35z"/></g><path d="m56.39 335.65h18.83v2.85h-18.83z" fill="#fff"/><path d="m119.3 385.87h-65.17l-.47-44.31h65.16z" fill="#0eba24"/><path d="m76.63 337.08h-23.02l.05 4.48h24.34z" fill="#0eba24"/><g opacity=".1"><path d="m119.3 385.87h-65.17l-.47-44.31h65.16z"/><path d="m76.63 337.08h-23.02l.05 4.48h24.34z"/></g><path d="m45.73 342.19h65.17v47.24h-65.17z" fill="#0eba24"/><path d="m68.76 337.3h-23.03v4.89h24.35z" fill="#0eba24"/><g fill="#fff" opacity=".2"><path d="m45.73 342.19h65.17v47.24h-65.17z"/><path d="m68.76 337.3h-23.03v4.89h24.35z"/></g><path d="m47.99 339.21h18.83v2.85h-18.83z" fill="#fff"/><path d="m110.9 389.43h-65.17l-.47-44.31h65.16z" fill="#0eba24"/><path d="m68.23 340.64h-23.02l.05 4.48h24.35z" fill="#0eba24"/><g fill="#fff" opacity=".4"><path d="m110.9 389.43h-65.17l-.47-44.31h65.16z"/><path d="m68.23 340.64h-23.02l.05 4.48h24.35z"/></g><path d="m43 345.37h101.34v47.5h-101.34z" fill="#455a64"/><path d="m110.78 345.37h33.55v47.5h-33.55z" fill="#37474f"/><path d="m144.33 345.37h-101.33v10.44l101.33-5.22z" fill="#020100" opacity=".1"/><path d="m65.15 354.7h23.48v7.29h-23.48z" fill="#263238"/><path d="m55.72 330.23h110.13v11.91h-110.13z" fill="#455a64" transform="matrix(.9824504 .18652404 -.18652404 .9824504 64.65 -14.76)"/><path d="m128.74 337.1h36.46v11.91h-36.46z" fill="#37474f" transform="matrix(.98 .19 -.19 .98 66.57 -21.39)"/><path d="m336.71 449.05c-2.46.8-72.81.18-75.48-1.54-1-.65-1.53-10.9-1.79-23.3-.05-2.68-5.37-45.85-5.37-45.85l47 .28 3.69 45.84s26.83 12.28 29.56 14.48 4.86 9.29 2.39 10.09z" fill="#f7a9a0"/><path d="m336.71 449.05c-2.46.8-72.81.18-75.48-1.54-.77-.49-1.25-6.49-1.56-14.78 9.1 2.09 60.25 6.29 66.13 5.58 5.68-.68-7.48-7.45-9.86-8.65 7.72 3.64 16.88 8.06 18.42 9.3 2.7 2.2 4.82 9.29 2.35 10.09z" fill="#263238"/><path d="m205.08 188.06s-12.3 17.86-5.53 37.26c11.55 33.14 40.88 70.43 41.79 74.69 2.12 10.06 13.43 113.1 13.43 113.1l50.63-.32s-6.72-87.4-15.64-116.27c-4.87-15.76-32.7-59-44.71-80-1.07-1.88 1.46-10 1.46-10z" fill="#263238"/><path d="m302.34 404c-8.16-.16-32.86-.84-43.74 0-.08 0-.08.14 0 .16 3.73.58 35.58.19 43.74 0a.12.12 0 0 0 0-.16z" fill="#37474f"/><path d="m196.32 212.44c3.51 5.66 7.22 11.2 10.81 16.81s7.17 11.23 10.7 16.88q10.59 16.94 20.66 34.18a103.14 103.14 0 0 1 8.31 16.69 100.69 100.69 0 0 1 4.58 17.9c1 6.11 1.69 12.28 2.31 18.44q1 9.84 1.95 19.69 2 20.14 4 40.3c.16 1.64.32 3.29.47 4.94 0 .24-.41.28-.44 0-1.51-13.35-2.73-26.73-4.09-40.1q-1-10-2-20c-.63-6.18-1.22-12.37-2.1-18.53a123.29 123.29 0 0 0 -3.78-17.94 86.57 86.57 0 0 0 -7.7-17.44c-6.44-11.44-13.27-22.68-20.11-33.91s-13.84-22.6-21.06-33.72c-.89-1.38-1.79-2.74-2.72-4.1-.04-.1.14-.2.21-.09z" fill="#37474f"/><path d="m208.6 449.39c-2.59-.19-69.16-28.12-71-30.71a1 1 0 0 1 -.09-.5c0-2.3 31.87-60.07 31.87-60.07l43.52 17.89-24.67 38.61s20.26 21.46 22 24.52.95 10.44-1.63 10.26z" fill="#f7a9a0"/><path d="m210.19 439.15c1.68 3.06 1 10.42-1.59 10.24s-69.16-28.12-71-30.71a1 1 0 0 1 -.09-.5c0-.75 3.42-7.42 8-16.06 9.44-17.81 23.87-44 23.87-44l43.52 17.88-24.67 38.61s5.59 5.93 11.14 12c5.04 5.51 10.01 11.09 10.82 12.54z" fill="#f7a9a0"/><path d="m208.6 449.39c-2.59-.19-69.16-28.12-71-30.71a1 1 0 0 1 -.09-.5c0-.75 3.42-7.42 8-16.06 11.49 12.09 56.83 34.13 58.32 33.51s-4.07-8.44-4.45-9c5 5.48 10 11.06 10.8 12.51 1.69 3.07 1 10.43-1.58 10.25z" fill="#263238"/><path d="m194.65 408.59-46.44-19.42s59.52-89.43 60-96.06c.47-5.88-25.56-57.4-26.42-72.34-.94-16.11 7-28.48 15.58-36.11l49.09 21.78s-4.29 8.77-12.74 13.41c0 0 25.16 59.49 23.47 77.67s-62.54 111.07-62.54 111.07z" fill="#263238"/><path d="m196.94 399.31c-6.41-2.87-4.53-2.14-11-4.93-3.15-1.37-23.9-10.31-27.09-11-.07 0-.12.11-.06.15 2.73 1.78 23.65 10.33 26.84 11.62 6.5 2.66 4.67 1.82 11.21 4.39.16.03.22-.17.1-.23z" fill="#37474f"/><path d="m241.08 220.33a96.38 96.38 0 0 0 -16 2.52.16.16 0 0 0 0 .32c5.34-.68 10.74-1.25 16-2.21a.32.32 0 0 0 0-.63z" fill="#37474f"/><path d="m235.49 217.34a23.11 23.11 0 0 0 -1.71 2.47 6.36 6.36 0 0 0 -1 2.14c0 .15.18.22.28.14a8.13 8.13 0 0 0 1.59-1.91c.55-.76 1.13-1.5 1.66-2.27a.5.5 0 0 0 -.82-.57z" fill="#37474f"/><path d="m246.07 203.13c0-.09-.15-.17-.18-.08a71.39 71.39 0 0 1 -3.46 7.81c-.59 1.19-4.32 7.57-6.7 6.17-.39-.23-.48-.66-.35-1.22a7.75 7.75 0 0 1 1.12-2c.82-1.32 1.58-2.67 2.26-4.05a35 35 0 0 0 2.9-8.08c0-.09-.13-.14-.17-.05a66.71 66.71 0 0 1 -4.92 10.83c-1 1.65-3 3.94-.93 5s5.29-2.88 6-4a36.93 36.93 0 0 0 4.43-10.33z" fill="#37474f"/><path d="m234.53 221.79c1.75 3.82 3.28 7.63 4.91 11.44s3.08 7.49 4.53 11.28c2.91 7.64 5.52 15.43 7.79 23.29q1.68 5.83 3.07 11.75a84.39 84.39 0 0 1 2.19 12 31.57 31.57 0 0 1 -1.16 12c-1.19 4-7.92 17.24-9.76 20.95-1.12 2.26-1.5 1.95-.95.81 1.55-3.25 10.78-22.9 10.6-31.21a62.69 62.69 0 0 0 -1.75-11.89c-.88-4-1.88-7.95-3-11.89-2.14-7.75-4.71-15.35-7.36-22.95-1.48-4.25-3.08-8.47-4.59-12.71s-3.09-8.13-4.77-12.8a.1.1 0 0 1 .25-.07z" fill="#37474f"/><path d="m197.52 208.76c.88-.31 2.09.24 3 .4a25.41 25.41 0 0 0 3.47.39 24.7 24.7 0 0 0 3.44-.07 7.44 7.44 0 0 0 3.31-.83 16.52 16.52 0 0 0 4.25-4.41 25.76 25.76 0 0 0 3.35-5.71c0-.12.22 0 .18.09-.38 1.16-.67 2.34-1.15 3.49a22.86 22.86 0 0 1 -1.66 3.08c-1.15 1.85-2.47 3.81-4.42 4.89s-4.66 1-6.92.88a27.16 27.16 0 0 1 -3.9-.57c-.92-.21-2.48-.38-3.06-1.2a.29.29 0 0 1 .11-.43z" fill="#37474f"/><path d="m163 379.07q12.3-18.12 24.15-36.52t23.39-37.15c1.83-3 3.95-6 5.15-9.26 1.3-3.6.63-7.11-.47-10.66a178.11 178.11 0 0 0 -7.22-19.09c-2.74-6.26-5.71-12.41-8.62-18.59s-6-12.28-8.14-18.71c-2.07-6.14-2.81-12.49-1.09-18.81s5.32-11.88 9.08-17.11c1-1.38 2-2.74 3-4.12.08-.1.24 0 .16.13-4.14 5.45-8.19 11.22-10.65 17.64a30.83 30.83 0 0 0 -2.15 9.93 32.38 32.38 0 0 0 1.41 10.25c1.9 6.43 5 12.53 7.79 18.58s5.89 12.33 8.68 18.56a197.41 197.41 0 0 1 7.58 19.18c.95 2.91 2 6 1.91 9.06-.11 3.4-1.77 6.44-3.49 9.29-7.47 12.33-15.21 24.57-23.06 36.73s-15.89 24.32-24 36.35l-3.09 4.54c-.17.19-.44-.04-.32-.22z" fill="#37474f"/><path d="m286.7 160a3 3 0 0 1 -1.36 2.6 19.06 19.06 0 0 1 -2.19 1.29c.21-2.92.1-5.94 0-8.83-.08-3.39-.35-6.71-.7-10.06h-.07c.13 3.39.15 6.81.2 10.21 0 3-.13 6-.07 9-.78.36-1.57.67-2.37 1 .05-1 .1-2.08.13-3.12.1-3.13-.05-6.22-.1-9.34 0-.08-.09-.08-.09 0 0 3-.22 6.11-.35 9.15 0 1.17-.1 2.34-.17 3.51-.54.18-1.09.35-1.63.51-.36.1-.72.2-1.08.28.05-2 0-4.12 0-6.13 0-3.25-.2-6.48-.24-9.73 0-.12-.15-.12-.15 0 0 3.24-.13 6.49-.16 9.73 0 2.08-.13 4.21-.14 6.32a38.33 38.33 0 0 1 -14.63.33 59 59 0 0 1 -8.33-2c-.66-.21-2.34-.8-4-1.41 0-1 0-2 0-2.91.06-2.16 0-4.35.12-6.5 0-.06-.07-.07-.08 0-.17 2.17-.46 4.32-.57 6.49 0 .87-.11 1.78-.15 2.69l-1.66-.64c.32-4.08.23-8.24.35-12.31 0-.1-.11-.1-.12 0-.28 4-.78 8-.87 12.06a5 5 0 0 1 -1.09-.53c-.81-.77.29-16.9.47-20.67.34-7 .69-15.43 2.43-22.21 1.49-5.79 4.55-14.07 19-13.82 10.58.19 15.51 11.25 16.38 17.67.44 3.31 2.84 25 3.08 31.91.09 1.78.24 3.66.21 5.46z" fill="#263238"/><path d="m245.07 152.52c-1.65 13.27.75 44.34 5.27 50.8 3.45 4.94 24.66 12.68 33.73 14.68 3.89.87 9.5-22.25 6.66-23.27-8.78-3.13-22.8-9-25.15-10.41-1.65-1-4.34-11.45-10.92-31.39-3.66-11.05-8.66-7.88-9.59-.41z" fill="#f7a9a0"/><path d="m298.65 219.67c-1.56 0-1.54.86.68 2.51s12.44 6.3 10.52 9.72-16.24-3.34-19.73-6.37-8.09-9.17-8.09-9.17c3.05.76 10.62 1.9 16.62 3.31z" fill="#f7a9a0"/><path d="m290 194.66c8.51 2.45 19.25 5 26.13 12.23a5 5 0 0 1 1.41 2.92c3.14 3.19 2.57 5.63 2.57 5.63 2 3.87 1.09 6.29 1.09 6.29s3.64 3.79 1.72 6.38c-2.16 2.9-6.85-3-11.42-4.65-10.45-3.81-26.39-6.3-29.51-7.1z" fill="#f7a9a0"/><path d="m303.39 211.76a70.94 70.94 0 0 1 9 3.86 71.91 71.91 0 0 1 8.76 6.12c.09.07.2 0 .12-.12a37.82 37.82 0 0 0 -17.79-10c-.2-.03-.25.08-.09.14z" fill="#263238"/><path d="m304.77 205.12c2.91 1.31 8 3.66 15.31 10.4 0 0 .07 0 0 0a34 34 0 0 0 -15.25-10.52c-.19-.09-.26 0-.06.12z" fill="#263238"/><path d="m305.58 201.56c4.86 2.42 7.62 4.57 12 8.25 0 0 .06 0 0 0-4.51-4.71-6.67-5.9-11.95-8.39-.18-.12-.24.04-.05.14z" fill="#263238"/><path d="m279.93 219.59 8.26-27.38s-19.57-7.64-22.27-9c-1.15-.56-8.08-23-11.58-32.69-2.31-6.38-8.6-9.29-10.27 3.7-1 7.61-.34 44.16 4.82 50 4.11 4.63 31.04 15.37 31.04 15.37z" fill="#0eba24"/><path d="m275.34 216.23c.28-2 2.83-10.2 3.49-12.22s3.57-10 4.25-12.12c0-.12.21-.1.17 0-.64 2.06-2.92 10.33-3.56 12.36s-3.28 10.13-4.24 12a.06.06 0 0 1 -.11-.02z" fill="#263238"/><path d="m270.46 215.63c-8.18-3.54-19.09-8.6-21.57-11.41-5.16-5.81-5.8-42.36-4.82-50 1.41-11 6.14-10.6 9-6.34z" fill="#020100" opacity=".1"/><path d="m246.51 206.44 4.14-20.87s7.35-2.57 7.22-12.07c0-4.37-2.1-21.44-7-28.19-4.62-6.32-12-4.78-16.51-2.58-8.73 4.3-21.15 16.39-36.91 41.93z" fill="#0eba24"/><path d="m238.7 178.43a32.22 32.22 0 0 1 5.81 3c.91.62 1.79 1.29 2.66 2 .43.36.88.68 1.32 1a4.85 4.85 0 0 0 1.49.82s0 .12 0 .11a8.17 8.17 0 0 1 -1.52-.42 8.7 8.7 0 0 1 -1.36-.76c-.93-.61-1.84-1.29-2.76-1.91a67.07 67.07 0 0 0 -5.7-3.59c-.12-.06-.04-.29.06-.25z" fill="#263238"/><path d="m232.94 179.78a33.12 33.12 0 0 1 5.23.93 21.25 21.25 0 0 1 2.51.86c.4.15.79.32 1.18.5s.83.47 1.26.65c0 0 0 .13 0 .11-.41-.16-.86-.21-1.28-.33l-1.27-.37-2.57-.73c-1.7-.51-3.39-1-5.11-1.42-.1.02-.05-.21.05-.2z" fill="#263238"/><path d="m242.88 143.14c-.15 1.11 2.11 9.69 7.12 10.87 2.61.61 4.43-7.57 4.43-7.57l.37-.56 5.16-7.81-7.59-10.25-1.13-1.41s-1.27 2.24-2.82 5c-.07.13-.15.26-.22.4s-.18.3-.26.45c-.24.41-.48.84-.71 1.27s-.35.64-.52 1-.36.69-.54 1a60.8 60.8 0 0 0 -3.29 7.61z" fill="#f7a9a0"/><path d="m248.42 131.44a18.78 18.78 0 0 0 6.38 14.44l5.16-7.81-7.59-10.25-1.13-1.41s-1.24 2.24-2.82 5.03z" fill="#263238"/><path d="m277.35 130.44c-4.85 15.7-14.8 14.56-18.18 13.51-3.08-.95-13.42-4.58-10.21-20.7s12-18.83 19.17-17 14.07 8.49 9.22 24.19z" fill="#f7a9a0"/><path d="m275.19 128.38c-.34-.18-.63-.41-.95-.62s-.68-.39-.85-.81a.58.58 0 0 1 .25-.67 1.44 1.44 0 0 1 1.46.2 2.08 2.08 0 0 1 1 1.18.63.63 0 0 1 -.91.72z" fill="#263238"/><path d="m265.43 122.93a10.6 10.6 0 0 0 1.11.28 1.81 1.81 0 0 0 1.17.06.58.58 0 0 0 .31-.64 1.43 1.43 0 0 0 -1.14-.93 2.18 2.18 0 0 0 -1.53.09.63.63 0 0 0 .08 1.14z" fill="#263238"/><path d="m266.05 127.53s-.1 0-.11.06c-.37 1-1 2.2-2.06 2.18 0 0-.05 0 0 .06 1.21.29 1.99-1.24 2.17-2.3z" fill="#263238"/><path d="m265.54 126.07c-1.62-.77-3.06 2.54-1.55 3.26s2.92-2.6 1.55-3.26z" fill="#263238"/><path d="m264.82 126c-.37.06-.8.27-1.16.15s-.58-.61-.7-1.06c0 0 0 0-.07 0a1.32 1.32 0 0 0 .31 1.78 1.34 1.34 0 0 0 1.71-.58c.09-.13.09-.35-.09-.29z" fill="#263238"/><path d="m271.94 130.22s.06.09 0 .13c-.5 1-.89 2.24-.12 3 0 0 0 .08 0 .06-1.05-.68-.51-2.31.12-3.19z" fill="#263238"/><path d="m273.33 129.57c1.7.62.34 4-1.23 3.39s-.19-3.91 1.23-3.39z" fill="#263238"/><path d="m273.92 130c.21.31.36.76.7.94s.84 0 1.25-.25c0 0 .06 0 0 .07-.25.64-.77 1.2-1.49 1s-.89-.91-.78-1.62c.05-.14.23-.25.32-.14z" fill="#263238"/><path d="m262.39 135.24c.08.37.12.82.44 1.06a2.81 2.81 0 0 0 1.17.4 0 0 0 0 1 0 .08 1.5 1.5 0 0 1 -1.52-.24 1.17 1.17 0 0 1 -.22-1.31c.03-.07.11-.04.13.01z" fill="#263238"/><path d="m268.14 134s-.61 1.58-1 2.27c0 .06-.22 0-.46-.11a3.75 3.75 0 0 1 -2.51-3 .08.08 0 0 1 .16 0 5.62 5.62 0 0 0 2.52 2.51c.15-.16.95-2.73 1.06-2.68a7 7 0 0 1 1.37 1.22c1.36-3.24 2.19-6.68 3.59-9.89a.11.11 0 0 1 .2.06 56.4 56.4 0 0 1 -3.41 10.81c-.18.34-1.31-.97-1.52-1.19z" fill="#263238"/><path d="m249.05 123.23c1.69.48 8.92-2.79 11.84-10.74 0 0-3.12 7-4 7.82s3.31-1.72 5.75-8.1a27.85 27.85 0 0 0 5.36 5.79c2.75 1.91 4.62 2.53 4.92 2.39s-3.7-3.12-4.43-4.94c0 0 6.8 6.59 10.43 8.18.42.18 3.14-7.81-1.32-13.6s-14.14-5.61-17.42-4.09c0 0-4.47.73-6.91 3.1-3.99 3.85-6.04 13.67-4.22 14.19z" fill="#263238"/><path d="m251.57 124.21s-1.39-6.1-4-5.8-2.94 8.22-.8 10.19a2.79 2.79 0 0 0 4 0z" fill="#f7a9a0"/><path d="m247.52 120.68s-.07 0 0 .06c1.48 1.45 1.74 3.47 1.7 5.44a1.53 1.53 0 0 0 -2-1.25c-.06 0-.05.1 0 .11a1.71 1.71 0 0 1 1.52 1.27 7.87 7.87 0 0 1 .26 1.74c0 .2.34.23.36 0 .96-2.27.49-6.15-1.84-7.37z" fill="#263238"/><path d="m254.61 146.18-3.9 6.49-7.41-11.19-3.21 2.31s6.71 16.64 6.92 16l3.85-5.76 3.46 4.58 1.12-10z" fill="#0eba24"/><path d="m255.51 148.71c0-.07-.09-.12-.11-.05-.57 2-1.3 9.63-1.3 9.63-.13-.23-3.19-4.3-3.24-4.25a58.6 58.6 0 0 0 -3.93 5.3c-.83-2.62-5.42-12.2-6.53-14.75a.06.06 0 0 0 -.12 0c.64 2.7 6.39 15.74 6.5 15.73s3.56-5 4.13-6c.45.93 3.46 5 3.54 4.79.55-1.68.84-8.58 1.06-10.4z" fill="#263238"/><path d="m230 150.32c-4.53 17-7.69 48.83-5.15 54.56 2.24 5.08 22.44 14.15 31.73 17.42 3.47 1.23 11.56-26 7.82-27.25-4.49-1.49-17.59-6.34-18-7.51s-2.7-22.85-5.4-36.54c-2.54-12.35-9.25-7.1-11-.68z" fill="#f7a9a0"/><path d="m276.83 198.13c8 3.21 9.55 5.26 17.73 4.38 5.37-.57 8 2.61 3.37 5.74-7.63 5.11-18.81 3.13-22.49 1.33z" fill="#f7a9a0"/><path d="m253.09 194s11 .15 19.81 2.72c6.13 1.79 19 7.15 23.72 25.59 1.11 4.38-.4 11.4-4.82 4.92-3.13-4.61-3.73-8.48-6-10.82 0 0-3 8.71-7.41 9.65a82.73 82.73 0 0 1 -11.75 1.65 18.42 18.42 0 0 1 -.5-2.17s-4.22.5-9.49-3.23z" fill="#f7a9a0"/><path d="m278.47 199.35c1.81 2.81 5.53 8.84 6.86 14.83 1.48 6.65 2.53 19.87-2.4 20.91-3.61.76-4.45-4.25-4.45-4.25s-.72 5.55-4.13 5.53c-3.11 0-3.53-3.94-3.53-3.94s-1 3.3-4 2.7c-3.6-.72-.88-7.51-3.9-11.38-.67-.87 15.55-24.4 15.55-24.4z" fill="#f7a9a0"/><path d="m278 214.57a27.21 27.21 0 0 1 .55 16.18c0 .13-.17.17-.16 0a66.53 66.53 0 0 0 -.45-16.21s.06 0 .06.03z" fill="#263238"/><path d="m271.37 216.25c.83 2.64 1.68 10.3-.42 16.19-.05.13-.18.16-.16 0a71.36 71.36 0 0 0 .51-16.21s.06-.01.07.02z" fill="#263238"/><path d="m278.25 198.74a73.26 73.26 0 0 0 8.14 3 14.33 14.33 0 0 0 4.22.69c1.44-.07 2.89-.21 4.36-.25a9.3 9.3 0 0 1 4.39.68 2.25 2.25 0 0 1 .86.82 2.19 2.19 0 0 1 .27 1.17 3.51 3.51 0 0 1 -.92 2.08 11.3 11.3 0 0 1 -3.57 2.57 15.75 15.75 0 0 1 -4.17 1.29 15.75 15.75 0 0 0 4.06-1.51 10.84 10.84 0 0 0 3.38-2.6 3.29 3.29 0 0 0 .79-1.85 1.68 1.68 0 0 0 -.93-1.58 9.1 9.1 0 0 0 -4.15-.57c-1.44 0-2.89.14-4.35.21a14.11 14.11 0 0 1 -4.35-.78 55.18 55.18 0 0 1 -8.03-3.37z" fill="#263238"/><path d="m289.68 207.8a44.92 44.92 0 0 1 5.31 8.87 32 32 0 0 1 1.74 4.9 14.24 14.24 0 0 1 .55 5.21 5.21 5.21 0 0 1 -.9 2.58 2 2 0 0 1 -1.29.8 2.29 2.29 0 0 1 -1.45-.37 6.87 6.87 0 0 1 -1.9-1.94 17.23 17.23 0 0 1 -1.31-2.28 50.58 50.58 0 0 0 -4.93-9l.58-.26a59 59 0 0 1 .67 9.75 22.8 22.8 0 0 1 -.57 4.86 8.69 8.69 0 0 1 -.86 2.29 3.45 3.45 0 0 1 -1.76 1.63 3.41 3.41 0 0 0 1.64-1.69 9.15 9.15 0 0 0 .74-2.29 25.8 25.8 0 0 0 .38-4.81 64.82 64.82 0 0 0 -.89-9.63l-.19-1.25.77 1a50.41 50.41 0 0 1 5.09 9 18.87 18.87 0 0 0 1.24 2.2 6.33 6.33 0 0 0 1.66 1.75 1.68 1.68 0 0 0 1 .28 1.25 1.25 0 0 0 .84-.53 4.58 4.58 0 0 0 .78-2.23 14.74 14.74 0 0 0 -.46-5 31.32 31.32 0 0 0 -1.58-4.86 52 52 0 0 0 -4.9-8.98z" fill="#263238"/><path d="m252.19 225.29 11.81-31.29-16.63-7c-1.51-10.53-4.52-31.58-6.65-38.71-2.5-8.36-8.47-7.17-11.08 1.33-6 19.44-8 52.32-5.89 57 2.94 6.63 28.44 18.67 28.44 18.67z" fill="#0eba24"/><path d="m248.54 219.51c.37-2.07 3.27-10.22 4-12.25s4-10 4.78-12.11c0-.11.21-.09.17 0-.73 2.07-3.36 10.35-4.09 12.38s-3.71 10.13-4.76 12c-.03.07-.11.04-.1-.02z" fill="#263238"/><path d="m241.47 219.78q-3.84-2.11-7.56-4.44a71.14 71.14 0 0 1 -7.18-5 13.84 13.84 0 0 1 -3.06-3.23 12.56 12.56 0 0 1 -1-4.34 64.62 64.62 0 0 1 -.05-8.8c.26-5.85 1-11.66 1.7-17.46s1.72-11.56 2.84-17.29q-1.16 8.66-2.16 17.34c-.7 5.8-1.27 11.6-1.64 17.42a76.72 76.72 0 0 0 -.07 8.71 12.29 12.29 0 0 0 .83 4.17 13.48 13.48 0 0 0 2.88 3.14 111.34 111.34 0 0 0 14.47 9.78z" fill="#263238"/><path d="m226.33 164.12a8.41 8.41 0 0 1 -.23-1.65 4.85 4.85 0 0 1 .16-1.65c0 .28 0 .55.05.82v.82a13.16 13.16 0 0 1 .02 1.66z" fill="#263238"/><path d="m243.72 164.47c.73 3.33 1.17 6.72 1.7 10.08s1 6.75 1.58 10.1l.23 1.25c.05.2.09.41.14.61l.09.28v.06s.07 0 .1.07c.67.37 1.5.72 2.26 1.06l4.7 2 9.42 4-.32.78.28-.79c-3.2-1.17-6.38-2.4-9.55-3.66-1.58-.62-3.16-1.28-4.73-1.95a24.92 24.92 0 0 1 -2.37-1.1.74.74 0 0 1 -.16-.12.78.78 0 0 1 -.09-.14l-.11-.33c-.06-.22-.1-.43-.15-.64q-.13-.63-.24-1.26c-.56-3.37-1-6.75-1.46-10.13l-.64-5.08c-.2-1.72-.35-3.42-.68-5.09z" fill="#263238"/><path d="m244.63 165.38a8.38 8.38 0 0 1 0 1.66 5.06 5.06 0 0 1 -.35 1.63c0-.28 0-.55.05-.82v-.83a12.9 12.9 0 0 1 .3-1.64z" fill="#263238"/></svg>